<?xml version="1.0" encoding="iso-8859-1"?>
<!-- Generator: Adobe Illustrator 19.0.0, SVG Export Plug-In . SVG Version: 6.00 Build 0)  -->
<svg version="1.1" id="Capa_1" xmlns="http://www.w3.org/2000/svg" xmlns:xlink="http://www.w3.org/1999/xlink" x="0px" y="0px"
	 viewBox="0 0 444.955 444.955" style="enable-background:new 0 0 444.955 444.955;" xml:space="preserve">
<g>
	<g>
		<g>
			<g>
				<path style="fill:#e4e3e5;" d="M95.347,0H31.782C14.239,0,0,14.239,0,31.782v63.565c0,17.544,14.239,31.782,31.782,31.782
					h63.565c17.544,0,31.782-14.239,31.782-31.782V31.782C127.13,14.239,112.891,0,95.347,0z"/>
				<path style="fill:#e4e3e5;" d="M254.26,0h-63.565c-17.544,0-31.782,14.239-31.782,31.782v63.565
					c0,17.544,14.239,31.782,31.782,31.782h63.565c17.544,0,31.782-14.239,31.782-31.782V31.782C286.042,14.239,271.804,0,254.26,0z
					"/>
				<path style="fill:#010002;" d="M413.172,0h-63.565c-17.544,0-31.783,14.239-31.783,31.782v63.565
					c0,17.544,14.239,31.782,31.783,31.782h63.565c17.544,0,31.783-14.239,31.783-31.782V31.782C444.955,14.239,430.716,0,413.172,0
					z"/>
				<path style="fill:#e4e3e5;" d="M95.347,158.912H31.782C14.239,158.912,0,173.151,0,190.695v63.565
					c0,17.544,14.239,31.782,31.782,31.782h63.565c17.544,0,31.782-14.239,31.782-31.782v-63.565
					C127.13,173.151,112.891,158.912,95.347,158.912z"/>
				<path style="fill:#e4e3e5;" d="M254.26,158.912h-63.565c-17.544,0-31.782,14.239-31.782,31.782v63.565
					c0,17.544,14.239,31.782,31.782,31.782h63.565c17.544,0,31.782-14.239,31.782-31.782v-63.565
					C286.042,173.151,271.804,158.912,254.26,158.912z"/>
				<path style="fill:#e4e3e5;" d="M413.172,158.912h-63.565c-17.544,0-31.783,14.239-31.783,31.782v63.565
					c0,17.544,14.239,31.782,31.783,31.782h63.565c17.544,0,31.783-14.239,31.783-31.782v-63.565
					C444.955,173.151,430.716,158.912,413.172,158.912z"/>
				<path style="fill:#e4e3e5;" d="M95.347,317.825H31.782C14.239,317.825,0,332.063,0,349.607v63.565
					c0,17.544,14.239,31.783,31.782,31.783h63.565c17.544,0,31.782-14.239,31.782-31.783v-63.565
					C127.13,332.063,112.891,317.825,95.347,317.825z"/>
				<path style="fill:#e4e3e5;" d="M254.26,317.825h-63.565c-17.544,0-31.782,14.239-31.782,31.783v63.565
					c0,17.544,14.239,31.783,31.782,31.783h63.565c17.544,0,31.782-14.239,31.782-31.783v-63.565
					C286.042,332.063,271.804,317.825,254.26,317.825z"/>
				<path style="fill:#e4e3e5;" d="M413.172,317.825h-63.565c-17.544,0-31.783,14.239-31.783,31.783v63.565
					c0,17.544,14.239,31.783,31.783,31.783h63.565c17.544,0,31.783-14.239,31.783-31.783v-63.565
					C444.955,332.063,430.716,317.825,413.172,317.825z"/>
			</g>
		</g>
	</g>
</g>
<g>
</g>
<g>
</g>
<g>
</g>
<g>
</g>
<g>
</g>
<g>
</g>
<g>
</g>
<g>
</g>
<g>
</g>
<g>
</g>
<g>
</g>
<g>
</g>
<g>
</g>
<g>
</g>
<g>
</g>
</svg>
