<?xml version="1.0" ?><svg id="Layer_1" style="enable-background:new 0 0 512 512;" version="1.1" viewBox="0 0 512 512" xml:space="preserve" xmlns="http://www.w3.org/2000/svg" xmlns:xlink="http://www.w3.org/1999/xlink"><g><path d="M466,102.9H264.6c-13.4,0-24.2,10.8-24.2,24.2v354.7c0,13.4,10.8,24.2,24.2,24.2H466c13.4,0,24.2-10.8,24.2-24.2V127.1   C490.2,113.8,479.3,102.9,466,102.9z M328.7,121.5h73.2c1.6,0,2.9,1.3,2.9,2.9s-1.3,2.9-2.9,2.9h-73.2c-1.6,0-2.9-1.3-2.9-2.9   S327.1,121.5,328.7,121.5z M319.8,483.1h-28.4c-4.2,0-7.7-3.4-7.7-7.7s3.4-7.7,7.7-7.7h28.4c4.2,0,7.7,3.4,7.7,7.7   S324.1,483.1,319.8,483.1z M381.3,481.7c0,5.4-4.4,9.8-9.8,9.8H359c-5.4,0-9.8-4.4-9.8-9.8v-12.5c0-5.4,4.4-9.8,9.8-9.8h12.5   c5.4,0,9.8,4.4,9.8,9.8V481.7z M439.2,483.1h-28.4c-4.2,0-7.7-3.4-7.7-7.7s3.4-7.7,7.7-7.7h28.4c4.2,0,7.7,3.4,7.7,7.7   S443.4,483.1,439.2,483.1z M477.7,445.5H252.9V146.9h224.8V445.5z"/><g><path d="M225.4,481.8v-49.4H49.9V56h294.4v32h28.1V41.8c0-19.8-16-35.8-35.8-35.8H57.7C37.9,6,21.8,22,21.8,41.8v404.8    c0,19.8,16,35.8,35.8,35.8h167.8C225.5,482.2,225.4,482,225.4,481.8z M197.1,470.8c-7,0-12.6-5.6-12.6-12.6    c0-7,5.6-12.6,12.6-12.6c7,0,12.6,5.6,12.6,12.6C209.7,465.2,204.1,470.8,197.1,470.8z"/></g></g></svg>